<svg xmlns="http://www.w3.org/2000/svg" xmlns:xlink="http://www.w3.org/1999/xlink" width="100" zoomAndPan="magnify" viewBox="0 0 75 74.999997" height="100" preserveAspectRatio="xMidYMid meet" version="1.0"><defs><clipPath id="af4c6bca68"><path d="M 3.171875 27.25 L 30 27.25 L 30 40 L 3.171875 40 Z M 3.171875 27.25 " clip-rule="nonzero"/></clipPath><clipPath id="16b4f9b4b1"><path d="M 34 27.25 L 54 27.25 L 54 32 L 34 32 Z M 34 27.25 " clip-rule="nonzero"/></clipPath><clipPath id="5cb70a1f55"><path d="M 42 36 L 48 36 L 48 47.5 L 42 47.5 Z M 42 36 " clip-rule="nonzero"/></clipPath><clipPath id="4797bbcd4e"><path d="M 44 42 L 50 42 L 50 47.5 L 44 47.5 Z M 44 42 " clip-rule="nonzero"/></clipPath><clipPath id="7fa99daba6"><path d="M 59 45 L 68 45 L 68 47.5 L 59 47.5 Z M 59 45 " clip-rule="nonzero"/></clipPath></defs><g clip-path="url(#af4c6bca68)"><path fill="#ff3131" d="M 28.242188 27.429688 C 28.734375 27.347656 29.230469 27.257812 29.734375 27.25 C 28.285156 27.472656 26.851562 27.828125 25.484375 28.355469 C 24.222656 28.84375 23.027344 29.511719 21.953125 30.328125 C 20.949219 31.078125 20.050781 31.953125 19.101562 32.765625 C 18.027344 33.652344 16.855469 34.417969 15.644531 35.101562 C 13.046875 36.5625 10.273438 37.675781 7.445312 38.605469 C 6.226562 39 5 39.363281 3.757812 39.679688 C 3.574219 39.722656 3.394531 39.785156 3.207031 39.796875 C 3.914062 39.625 4.609375 39.402344 5.308594 39.195312 C 8.269531 38.285156 11.183594 37.1875 13.933594 35.753906 C 15.875 34.738281 17.738281 33.546875 19.367188 32.078125 C 19.757812 31.742188 20.109375 31.363281 20.5 31.035156 C 22.683594 29.144531 25.410156 27.941406 28.242188 27.429688 Z M 28.242188 27.429688 " fill-opacity="1" fill-rule="nonzero"/></g><g clip-path="url(#16b4f9b4b1)"><path fill="#ff3131" d="M 35.109375 27.660156 C 38.25 27.453125 41.402344 27.695312 44.511719 28.136719 C 45.324219 28.199219 46.082031 28.511719 46.847656 28.765625 C 49.25 29.589844 51.621094 30.496094 53.921875 31.5625 C 51.957031 31.386719 49.984375 31.328125 48.011719 31.324219 C 45.652344 31.3125 43.296875 31.382812 40.941406 31.5 C 40.382812 31.53125 39.8125 31.546875 39.261719 31.445312 C 38.820312 31.363281 38.386719 31.195312 38.039062 30.902344 C 37.105469 30.0625 36.214844 29.164062 35.203125 28.414062 C 35.027344 28.277344 34.808594 28.179688 34.683594 27.992188 C 34.636719 27.925781 34.625 27.820312 34.699219 27.773438 C 34.816406 27.6875 34.96875 27.675781 35.109375 27.660156 Z M 35.109375 27.660156 " fill-opacity="1" fill-rule="nonzero"/></g><path fill="#ff3131" d="M 30.082031 28.230469 C 30.882812 28.148438 31.703125 28.1875 32.480469 28.417969 C 33.511719 28.710938 34.441406 29.304688 35.199219 30.058594 C 35.835938 30.6875 36.355469 31.425781 36.789062 32.207031 C 33.683594 32.332031 30.582031 32.449219 27.476562 32.574219 C 27.050781 31.648438 26.5 30.765625 25.773438 30.042969 C 25.65625 29.914062 25.492188 29.816406 25.4375 29.640625 C 25.425781 29.503906 25.578125 29.445312 25.679688 29.394531 C 26.207031 29.171875 26.746094 28.992188 27.289062 28.824219 C 28.199219 28.546875 29.132812 28.324219 30.082031 28.230469 Z M 30.082031 28.230469 " fill-opacity="1" fill-rule="nonzero"/><path fill="#ff3131" d="M 24.007812 30.167969 C 24.214844 30.066406 24.414062 29.925781 24.648438 29.917969 C 24.828125 29.9375 24.96875 30.070312 25.101562 30.175781 C 25.5 30.535156 25.8125 30.980469 26.105469 31.425781 C 26.269531 31.679688 26.425781 31.9375 26.570312 32.203125 C 26.617188 32.300781 26.671875 32.417969 26.625 32.523438 C 26.550781 32.636719 26.40625 32.621094 26.289062 32.625 C 25.4375 32.613281 24.589844 32.628906 23.738281 32.65625 C 22.925781 32.691406 22.109375 32.734375 21.304688 32.867188 C 21.011719 32.917969 20.714844 32.972656 20.441406 33.097656 C 21.0625 32.039062 22.027344 31.222656 23.09375 30.632812 C 23.390625 30.464844 23.703125 30.320312 24.007812 30.167969 Z M 24.007812 30.167969 " fill-opacity="1" fill-rule="nonzero"/><path fill="#ff3131" d="M 43.746094 32.023438 C 45.605469 31.980469 47.464844 31.933594 49.320312 31.84375 C 51.328125 31.777344 53.335938 31.804688 55.332031 31.992188 C 57.0625 32.140625 58.789062 32.328125 60.507812 32.554688 C 61.414062 32.675781 62.320312 32.808594 63.21875 32.988281 C 64.546875 33.246094 65.890625 33.507812 67.140625 34.054688 C 67.515625 34.222656 67.882812 34.410156 68.230469 34.628906 C 67.519531 34.355469 66.796875 34.121094 66.050781 33.980469 C 65.730469 33.914062 65.410156 33.882812 65.09375 33.820312 C 64.734375 33.789062 64.371094 33.824219 64.011719 33.820312 C 62.890625 33.828125 61.765625 33.863281 60.652344 34.015625 C 60.507812 34.039062 60.339844 34.0625 60.25 34.195312 C 60.167969 34.320312 60.230469 34.476562 60.289062 34.601562 C 60.671875 35.277344 61.019531 35.980469 61.375 36.675781 C 61.621094 37.164062 61.878906 37.648438 62.113281 38.140625 C 61.140625 36.589844 59.796875 35.277344 58.242188 34.3125 C 57.976562 34.148438 57.703125 33.992188 57.421875 33.859375 C 57.039062 33.683594 56.621094 33.585938 56.207031 33.519531 C 55.40625 33.417969 54.617188 33.246094 53.820312 33.113281 C 50.023438 32.457031 46.175781 32.070312 42.320312 32.066406 C 42.796875 32.03125 43.269531 32.039062 43.746094 32.023438 Z M 43.746094 32.023438 " fill-opacity="1" fill-rule="nonzero"/><path fill="#ff3131" d="M 53.222656 34.132812 C 53.824219 34.257812 54.429688 34.476562 54.890625 34.894531 C 55.160156 35.132812 55.355469 35.449219 55.441406 35.796875 C 55.496094 36.027344 55.46875 36.285156 55.328125 36.476562 C 55.15625 36.714844 54.882812 36.851562 54.609375 36.9375 C 54.859375 36.75 55.113281 36.535156 55.21875 36.230469 C 55.320312 35.945312 55.226562 35.628906 55.050781 35.394531 C 54.777344 35.019531 54.390625 34.75 53.996094 34.515625 C 53.746094 34.371094 53.488281 34.242188 53.222656 34.132812 Z M 53.222656 34.132812 " fill-opacity="1" fill-rule="nonzero"/><path fill="#ff3131" d="M 64.78125 34.128906 C 64.949219 34.109375 65.117188 34.101562 65.285156 34.117188 C 66.078125 34.277344 66.882812 34.414062 67.652344 34.667969 C 67.878906 34.742188 68.105469 34.835938 68.289062 34.988281 C 68.535156 35.183594 68.691406 35.464844 68.792969 35.753906 C 68.96875 36.277344 69.15625 36.800781 69.285156 37.335938 C 69.335938 37.566406 69.398438 37.824219 69.277344 38.042969 C 69.207031 38.183594 69.046875 38.253906 68.894531 38.242188 C 67.378906 38.128906 65.859375 38.070312 64.339844 38.042969 C 63.949219 38.027344 63.546875 38.082031 63.171875 37.953125 C 62.75 37.808594 62.445312 37.457031 62.195312 37.105469 C 61.789062 36.511719 61.425781 35.894531 61.089844 35.261719 C 60.984375 35.046875 60.886719 34.800781 60.949219 34.5625 C 60.996094 34.386719 61.183594 34.308594 61.351562 34.296875 C 62.492188 34.183594 63.640625 34.183594 64.78125 34.128906 Z M 64.78125 34.128906 " fill-opacity="1" fill-rule="nonzero"/><path fill="#ff3131" d="M 52.28125 34.167969 C 52.875 34.121094 53.4375 34.390625 53.933594 34.683594 C 54.25 34.878906 54.558594 35.105469 54.773438 35.414062 C 54.945312 35.664062 55.035156 35.980469 54.980469 36.285156 C 54.898438 36.558594 54.648438 36.746094 54.382812 36.824219 C 54.046875 36.925781 53.683594 36.910156 53.339844 36.847656 C 52.527344 36.6875 51.824219 36.097656 51.496094 35.34375 C 51.394531 35.117188 51.378906 34.835938 51.542969 34.632812 C 51.726562 34.40625 51.976562 34.195312 52.28125 34.167969 Z M 52.28125 34.167969 " fill-opacity="1" fill-rule="nonzero"/><path fill="#ff3131" d="M 56.15625 34.183594 C 56.742188 34.085938 57.332031 34.3125 57.808594 34.644531 C 58.113281 34.851562 58.382812 35.109375 58.632812 35.378906 C 58.863281 35.613281 59.007812 35.921875 59.089844 36.238281 C 59.144531 36.492188 59.148438 36.785156 58.980469 37 C 58.785156 37.25 58.445312 37.332031 58.144531 37.324219 C 57.328125 37.246094 56.558594 36.804688 56.078125 36.144531 C 55.90625 35.910156 55.761719 35.644531 55.65625 35.371094 C 55.574219 35.121094 55.550781 34.832031 55.65625 34.585938 C 55.742188 34.378906 55.9375 34.222656 56.15625 34.183594 Z M 56.15625 34.183594 " fill-opacity="1" fill-rule="nonzero"/><path fill="#ff3131" d="M 57.519531 34.273438 C 58.035156 34.554688 58.554688 34.847656 58.996094 35.238281 C 59.222656 35.441406 59.4375 35.667969 59.554688 35.953125 C 59.644531 36.164062 59.65625 36.417969 59.550781 36.625 C 59.472656 36.796875 59.328125 36.925781 59.183594 37.039062 C 59.335938 36.761719 59.371094 36.425781 59.269531 36.125 C 59.117188 35.644531 58.761719 35.261719 58.394531 34.929688 C 58.125 34.683594 57.816406 34.480469 57.519531 34.273438 Z M 57.519531 34.273438 " fill-opacity="1" fill-rule="nonzero"/><path fill="#ff3131" d="M 68.945312 35.371094 C 68.957031 35.363281 68.988281 35.347656 69.003906 35.339844 C 69.144531 35.371094 69.257812 35.480469 69.359375 35.578125 C 69.660156 35.898438 69.871094 36.289062 70.046875 36.6875 C 70.164062 36.964844 70.292969 37.242188 70.335938 37.542969 C 70.347656 37.671875 70.359375 37.824219 70.265625 37.929688 C 70.203125 37.96875 70.140625 37.917969 70.09375 37.878906 C 69.703125 37.496094 69.507812 36.96875 69.261719 36.488281 C 69.132812 36.210938 68.992188 35.933594 68.921875 35.632812 C 68.90625 35.550781 68.882812 35.445312 68.945312 35.371094 Z M 68.945312 35.371094 " fill-opacity="1" fill-rule="nonzero"/><g clip-path="url(#5cb70a1f55)"><path fill="#ff3131" d="M 42.746094 36.320312 C 43.40625 36.203125 44.101562 36.210938 44.726562 36.453125 C 45.28125 36.660156 45.757812 37.039062 46.125 37.496094 C 46.582031 38.066406 46.890625 38.746094 47.09375 39.445312 C 47.3125 40.210938 47.417969 41.011719 47.40625 41.8125 C 47.363281 42.519531 47.269531 43.230469 47.082031 43.917969 C 46.90625 44.5625 46.640625 45.195312 46.234375 45.730469 C 45.875 46.203125 45.402344 46.59375 44.851562 46.820312 C 44.230469 47.085938 43.535156 47.148438 42.867188 47.0625 C 43.449219 47.003906 44.023438 46.816406 44.492188 46.464844 C 45.023438 46.070312 45.40625 45.507812 45.671875 44.90625 C 46.011719 44.121094 46.179688 43.277344 46.28125 42.433594 C 46.386719 41.613281 46.371094 40.78125 46.269531 39.957031 C 46.179688 39.28125 46.011719 38.605469 45.699219 37.996094 C 45.429688 37.472656 45.03125 37.003906 44.519531 36.707031 C 43.988281 36.390625 43.359375 36.28125 42.746094 36.320312 Z M 42.746094 36.320312 " fill-opacity="1" fill-rule="nonzero"/></g><path fill="#ff3131" d="M 20.785156 38.148438 C 21.089844 38.671875 21.417969 39.191406 21.847656 39.621094 C 22.097656 39.867188 22.386719 40.082031 22.71875 40.207031 C 23.066406 40.34375 23.441406 40.378906 23.808594 40.40625 C 28.28125 40.675781 32.75 40.929688 37.222656 41.191406 C 37.492188 41.21875 37.765625 41.203125 38.035156 41.25 C 35.917969 41.203125 33.800781 41.183594 31.679688 41.144531 C 28.960938 41.105469 26.242188 41.0625 23.519531 41.023438 C 23.167969 41.007812 22.808594 41.039062 22.464844 40.964844 C 21.941406 40.847656 21.539062 40.417969 21.375 39.917969 C 21.183594 39.328125 20.972656 38.742188 20.785156 38.148438 Z M 20.785156 38.148438 " fill-opacity="1" fill-rule="nonzero"/><path fill="#ff3131" d="M 23.992188 41.851562 C 24.148438 41.832031 24.304688 41.792969 24.464844 41.796875 C 27.417969 41.914062 30.371094 42.019531 33.324219 42.105469 C 34.394531 42.132812 35.460938 42.167969 36.53125 42.171875 C 36.652344 42.175781 36.769531 42.1875 36.890625 42.203125 C 36.464844 42.191406 36.042969 42.238281 35.617188 42.242188 C 32.933594 42.351562 30.25 42.359375 27.5625 42.347656 C 25.449219 42.335938 23.332031 42.300781 21.21875 42.25 C 22.140625 42.109375 23.066406 41.984375 23.992188 41.851562 Z M 23.992188 41.851562 " fill-opacity="1" fill-rule="nonzero"/><path fill="#ff3131" d="M 48.804688 42.175781 C 48.828125 42.113281 48.902344 42.125 48.957031 42.125 C 50.539062 42.199219 52.125 42.265625 53.710938 42.230469 C 53.957031 42.71875 54.382812 43.121094 54.898438 43.308594 C 55.234375 43.4375 55.597656 43.488281 55.953125 43.472656 C 58.816406 43.652344 61.683594 43.804688 64.554688 43.761719 C 65.578125 43.722656 66.597656 43.664062 67.617188 43.570312 C 68.40625 43.492188 69.199219 43.398438 69.976562 43.234375 C 70.3125 43.160156 70.648438 43.078125 70.964844 42.945312 C 71.132812 42.871094 71.304688 42.789062 71.40625 42.632812 C 71.570312 42.84375 71.640625 43.105469 71.71875 43.355469 C 71.785156 43.59375 71.742188 43.867188 71.578125 44.054688 C 71.339844 44.332031 70.988281 44.472656 70.652344 44.585938 C 69.949219 44.808594 69.214844 44.90625 68.484375 44.992188 C 66.585938 45.191406 64.679688 45.25 62.773438 45.3125 C 58.835938 45.441406 54.886719 45.324219 50.960938 44.992188 C 50.328125 44.933594 49.695312 44.875 49.066406 44.800781 C 49.015625 44.789062 48.933594 44.796875 48.925781 44.730469 C 48.929688 43.878906 48.882812 43.023438 48.804688 42.175781 Z M 48.804688 42.175781 " fill-opacity="1" fill-rule="nonzero"/><g clip-path="url(#4797bbcd4e)"><path fill="#ff3131" d="M 46.042969 46.4375 C 47.109375 45.519531 47.65625 44.105469 47.71875 42.714844 C 47.8125 43.097656 47.808594 43.496094 47.832031 43.890625 C 47.847656 44.410156 47.863281 44.933594 47.832031 45.453125 C 47.855469 45.5625 47.988281 45.589844 48.082031 45.613281 C 48.535156 45.679688 48.996094 45.675781 49.457031 45.710938 C 49.328125 45.925781 49.132812 46.089844 48.957031 46.265625 C 48.683594 46.527344 48.402344 46.777344 48.109375 47.015625 C 47.777344 47.285156 47.320312 47.269531 46.917969 47.320312 C 46.046875 47.378906 45.171875 47.445312 44.304688 47.367188 C 44.9375 47.179688 45.542969 46.871094 46.042969 46.4375 Z M 46.042969 46.4375 " fill-opacity="1" fill-rule="nonzero"/></g><path fill="#ff3131" d="M 14.367188 43.433594 C 15.171875 43.496094 15.972656 43.597656 16.777344 43.671875 C 20.492188 44.046875 24.210938 44.402344 27.929688 44.726562 C 30.417969 44.941406 32.90625 45.144531 35.402344 45.289062 C 36.011719 45.316406 36.625 45.359375 37.234375 45.367188 C 36.246094 45.378906 35.257812 45.351562 34.269531 45.34375 C 31.769531 45.324219 29.265625 45.304688 26.761719 45.292969 C 26.582031 45.289062 26.402344 45.300781 26.226562 45.285156 C 22.273438 44.671875 18.320312 44.042969 14.367188 43.433594 Z M 14.367188 43.433594 " fill-opacity="1" fill-rule="nonzero"/><g clip-path="url(#7fa99daba6)"><path fill="#ff3131" d="M 64.921875 45.910156 C 65.695312 45.886719 66.46875 45.851562 67.238281 45.785156 C 67.109375 46.027344 66.882812 46.199219 66.675781 46.375 C 65.714844 47.125 64.539062 47.628906 63.316406 47.699219 C 62.539062 47.742188 61.746094 47.589844 61.042969 47.257812 C 60.359375 46.9375 59.753906 46.472656 59.234375 45.929688 C 61.128906 45.953125 63.027344 45.957031 64.921875 45.910156 Z M 64.921875 45.910156 " fill-opacity="1" fill-rule="nonzero"/></g></svg>